<?xml version="1.0" encoding="utf-8"?><!-- Uploaded to: SVG Repo, www.svgrepo.com, Generator: SVG Repo Mixer Tools -->
<svg fill="#000000" width="800px" height="800px" viewBox="0 0 24 24" id="mobile-payment-dollar" data-name="Line Color" xmlns="http://www.w3.org/2000/svg" class="icon line-color"><path id="secondary" d="M19,11H16.5A1.5,1.5,0,0,0,15,12.5h0A1.5,1.5,0,0,0,16.5,14h1A1.5,1.5,0,0,1,19,15.5h0A1.5,1.5,0,0,1,17.5,17H15" style="fill: none; stroke: rgb(44, 169, 188); stroke-linecap: round; stroke-linejoin: round; stroke-width: 2;"></path><path id="secondary-2" data-name="secondary" d="M17,11V10m0,8V17" style="fill: none; stroke: rgb(44, 169, 188); stroke-linecap: round; stroke-linejoin: round; stroke-width: 2;"></path><path id="primary" d="M14,21H6a1,1,0,0,1-1-1V4A1,1,0,0,1,6,3H16a1,1,0,0,1,1,1V6" style="fill: none; stroke: rgb(0, 0, 0); stroke-linecap: round; stroke-linejoin: round; stroke-width: 2;"></path><polygon id="primary-2" data-name="primary" points="13 3 9 3 9.5 5 12.5 5 13 3" style="fill: none; stroke: rgb(0, 0, 0); stroke-linecap: round; stroke-linejoin: round; stroke-width: 2;"></polygon></svg>